<?xml version="1.0" encoding="utf-8"?>
<!-- Generator: Adobe Illustrator 16.0.0, SVG Export Plug-In . SVG Version: 6.00 Build 0)  -->
<!DOCTYPE svg PUBLIC "-//W3C//DTD SVG 1.1//EN" "http://www.w3.org/Graphics/SVG/1.1/DTD/svg11.dtd">
<svg version="1.1" id="Layer_1" xmlns="http://www.w3.org/2000/svg" xmlns:xlink="http://www.w3.org/1999/xlink" x="0px" y="0px"
	 width="360px" height="50px" viewBox="0 0 360 50" enable-background="new 0 0 360 50" xml:space="preserve">
<g>
	<g>
		<g>
			<path fill="#00394A" d="M1.5,45.917C1.657,45.6,1.895,45.1,2.215,44.423c0.196-0.479,0.355-0.878,0.475-1.197l0.238-3.05V8.234
				c0-0.479,0-0.958,0-1.437C2.809,6.241,2.719,5.833,2.66,5.572C2.6,5.312,2.481,4.955,2.303,4.495
				C2.124,4.037,1.857,3.471,1.5,2.791h6.842c2.619,0,5.314,0.419,8.092,1.256c2.776,0.837,5.255,1.993,7.437,3.47
				c2.619,1.794,4.651,4.148,6.1,7.058c1.447,2.911,2.171,6.182,2.171,9.809c0,6.541-2.103,11.765-6.308,15.673
				c-4.203,3.909-9.917,5.861-17.135,5.861H1.5z M8.521,6.618v35.411c2.578,0,4.59-0.189,6.039-0.568
				c1.449-0.379,2.925-1.066,4.434-2.062c4.72-2.992,7.081-7.776,7.081-14.356c0-6.102-2.004-10.847-6.01-14.237
				c-1.468-1.235-3.006-2.151-4.611-2.751C13.847,7.457,11.535,6.978,8.521,6.618z"/>
			<path fill="#00394A" d="M35.818,2.791h8.33c-0.477,1.038-0.803,1.877-0.981,2.518c-0.179,0.64-0.289,1.127-0.328,1.467
				c-0.04,0.339-0.06,0.848-0.06,1.527v24.681v1.858l0.357,1.736c0.557,1.559,1.652,2.866,3.282,3.924
				c1.631,1.058,3.461,1.588,5.49,1.588c2.983,0,5.698-0.979,8.145-2.936c2.445-1.957,3.669-4.175,3.669-6.65V8.303
				c0-0.958-0.071-1.769-0.208-2.427c-0.14-0.659-0.507-1.688-1.102-3.085h8.331c-0.517,0.997-0.862,1.814-1.041,2.452
				c-0.179,0.639-0.289,1.127-0.328,1.466c-0.04,0.34-0.059,0.867-0.059,1.585v31.941c0,0.559,0,1.046,0,1.466
				c0,0.419,0.079,0.906,0.238,1.465c0.119,0.717,0.436,1.636,0.952,2.751h-7.319l0.536-1.945l0.237-1.882v-0.691
				c0-0.155,0-0.307,0-0.462c-0.159-0.19-0.237-0.326-0.237-0.401c-2.726,2.192-4.985,3.677-6.781,4.454
				c-1.798,0.778-3.842,1.167-6.133,1.167c-3.238,0-6.082-0.877-8.528-2.633c-1.856-1.275-3.16-2.789-3.911-4.544
				c-0.75-1.914-1.125-4.307-1.125-7.18V8.234c0-1.195-0.139-2.214-0.417-3.051L35.818,2.791z"/>
			<path fill="#00394A" d="M76.458,44.301v-6.996c1.585,1.754,2.995,2.979,4.223,3.679c1.229,0.698,2.539,1.046,3.928,1.046
				c1.864,0,3.45-0.598,4.759-1.791c1.229-1.235,1.845-2.787,1.845-4.659c0-1.554-0.428-2.916-1.28-4.092
				c-0.854-1.173-2.37-2.498-4.551-3.971l-3.929-2.808c-3.332-2.509-4.997-5.732-4.997-9.675c0-3.505,1.223-6.45,3.669-8.839
				s5.541-3.585,9.281-3.585c1.312,0,2.368,0.103,3.165,0.3c0.794,0.201,1.948,0.64,3.461,1.316v6.7
				c-1.429-1.437-2.658-2.443-3.689-3.021c-1.033-0.578-2.183-0.866-3.451-0.866c-1.904,0-3.51,0.665-4.82,2
				c-1.309,1.334-1.963,3.034-1.963,5.105c0,1.475,0.376,2.789,1.13,3.942c0.476,0.716,1.149,1.453,2.022,2.209
				c0.478,0.438,1.19,0.977,2.142,1.613c0.634,0.478,1.289,0.936,1.963,1.373c0.872,0.597,1.547,1.074,2.024,1.434
				c0.476,0.359,1.089,0.837,1.844,1.434c2.658,2.23,3.987,5.056,3.987,8.481c0,2.468-0.773,4.718-2.32,6.748
				c-2.342,3.226-5.852,4.837-10.532,4.837c-0.872,0-1.646-0.021-2.321-0.06c-0.673-0.04-1.319-0.129-1.934-0.269
				S78.282,45.221,76.458,44.301z"/>
			<path fill="#00394A" d="M103.232,2.791h8.27c-0.674,1.074-1.092,1.932-1.249,2.567l-0.238,2.806v13.609l13.432-14.393
				c0.713-0.715,1.228-1.39,1.542-2.025c0.313-0.637,0.618-1.491,0.913-2.564h9.461l-2.913,2.152l-2.435,2.341L115.37,22.588
				L130.235,40.9l2.747,3.163c0.595,0.479,1.586,1.098,2.977,1.854h-10.056V44.9c0-0.557-0.061-0.995-0.181-1.314
				c-0.118-0.319-0.555-0.916-1.311-1.792l-14.396-18.117v16.441c0,1.475,0.059,2.511,0.179,3.108c0.118,0.6,0.495,1.496,1.131,2.69
				h-7.975c0.477-1.115,0.773-2.013,0.894-2.691c0.119-0.678,0.178-1.714,0.178-3.11V8.174c0-1.155-0.051-1.974-0.149-2.453
				c-0.1-0.478-0.217-0.916-0.357-1.314C103.776,4.008,103.549,3.471,103.232,2.791z"/>
			<path fill="#00394A" d="M132.398,2.791h8.925v1.073c0,0.717,0.285,1.609,0.855,2.682l7.827,13.853l7.825-13.824
				c0.498-1.081,0.748-1.882,0.748-2.402V2.791h7.973l-2.796,3.05c-0.594,0.719-1.309,1.794-2.142,3.23l-9.402,15.911v15.193
				c0,1.435,0.061,2.451,0.179,3.05c0.12,0.598,0.497,1.495,1.131,2.691h-8.389c0.199-0.359,0.417-0.817,0.654-1.375
				c0.238-0.558,0.437-1.127,0.595-1.705c0.159-0.579,0.237-1.465,0.237-2.661V24.624l-9.28-15.731
				c-1.191-2.035-1.973-3.28-2.352-3.738c-0.376-0.458-0.823-0.906-1.339-1.347C133.49,3.648,133.073,3.309,132.398,2.791z"/>
			<path fill="#00394A" d="M184.045,45.917c0.514-0.996,0.911-1.974,1.189-2.931c0.196-0.876,0.299-1.834,0.299-2.871V8.174
				c0-1.076-0.073-1.933-0.21-2.571c-0.138-0.638-0.505-1.575-1.102-2.812h7.677c4.562,0,8.338,1.147,11.333,3.438
				c2.996,2.295,4.494,5.254,4.494,8.884c0,2.631-0.914,4.984-2.736,7.058c-0.954,1.038-1.836,1.815-2.649,2.333
				c-0.812,0.519-2.192,1.116-4.136,1.794c3.293,5.185,5.742,8.813,7.349,10.886c1.609,2.074,4.234,4.985,7.886,8.733h-5.549
				c-3.94-3.696-6.902-6.698-8.89-9.005c-1.749-2.107-4.395-5.705-7.935-10.793v14.014c0,0.518,0,0.954,0,1.312
				c0,0.359,0.069,0.865,0.21,1.522c0.137,0.655,0.524,1.638,1.159,2.95H184.045z M191.065,6.498v17.826
				c2.022,0,3.619-0.18,4.789-0.541c1.17-0.358,2.271-1.059,3.303-2.099c1.784-1.801,2.679-3.882,2.679-6.244
				c0-2.199-0.686-4.069-2.056-5.611c-1.367-1.538-3.202-2.55-5.503-3.031L191.065,6.498z"/>
			<path fill="#00394A" d="M216.724,45.917c0.553-0.957,0.949-1.893,1.188-2.812c0.118-0.518,0.197-0.937,0.236-1.256
				s0.059-0.876,0.059-1.674V8.294c0-1.117-0.059-1.914-0.177-2.392c-0.118-0.479-0.269-0.947-0.445-1.407
				c-0.181-0.458-0.446-1.024-0.804-1.704h8.446c-0.515,1.157-0.881,2.144-1.098,2.959c-0.22,0.819-0.328,1.688-0.328,2.604v31.822
				c0,1.435,0.138,2.57,0.417,3.408c0.079,0.279,0.207,0.628,0.387,1.047c0.177,0.418,0.387,0.848,0.622,1.286H216.724z"/>
			<path fill="#00394A" d="M232.131,45.917c0.157-0.317,0.396-0.817,0.714-1.494c0.197-0.479,0.357-0.878,0.477-1.197l0.238-3.05
				V8.234c0-0.479,0-0.958,0-1.437c-0.118-0.557-0.209-0.965-0.269-1.226c-0.06-0.26-0.177-0.617-0.357-1.077
				c-0.177-0.458-0.445-1.024-0.803-1.704h6.844c2.619,0,5.313,0.419,8.093,1.256c2.776,0.837,5.254,1.993,7.437,3.47
				c2.619,1.794,4.651,4.148,6.1,7.058c1.446,2.911,2.17,6.182,2.17,9.809c0,6.541-2.101,11.765-6.306,15.673
				c-4.205,3.909-9.919,5.861-17.136,5.861H232.131z M239.151,6.618v35.411c2.579,0,4.592-0.189,6.04-0.568
				c1.45-0.379,2.925-1.066,4.432-2.062c4.721-2.992,7.083-7.776,7.083-14.356c0-6.102-2.006-10.847-6.012-14.237
				c-1.468-1.235-3.005-2.151-4.611-2.751C244.478,7.457,242.167,6.978,239.151,6.618z"/>
			<path fill="#00394A" d="M301.616,5.483v6.16c-3.015-2.272-5.513-3.788-7.496-4.546c-1.986-0.758-4.204-1.137-6.666-1.137
				c-4.681,0-8.559,1.774-11.633,5.323c-3.073,3.551-4.612,7.995-4.612,13.34c0,5.303,1.587,9.621,4.764,12.949
				c3.173,3.331,7.26,4.995,12.255,4.995c1.747,0,3.123-0.09,4.137-0.271c1.013-0.178,2.647-0.646,4.909-1.405V29.289
				c0-0.959-0.102-1.736-0.299-2.332c-0.117-0.719-0.475-1.737-1.07-3.052h8.389c-0.556,0.957-0.942,1.865-1.159,2.722
				c-0.22,0.856-0.327,1.765-0.327,2.722v7.597c0,0.717,0,1.386,0,2.003c0,0.62,0.039,1.198,0.117,1.735
				c0.079,0.538,0.318,1.446,0.715,2.722c-1.507,0.519-2.599,0.878-3.271,1.077c-1.35,0.398-2.896,0.797-4.641,1.196
				c-0.915,0.159-1.986,0.3-3.216,0.418c-1.229,0.119-2.458,0.18-3.687,0.18c-5.396,0-10.017-1.096-13.864-3.29
				c-2.938-1.674-5.287-4.166-7.051-7.477c-1.767-3.311-2.648-6.899-2.648-10.768c0-6.181,2.15-11.453,6.457-15.82
				c4.304-4.367,9.587-6.549,15.857-6.549c2.419,0,4.432,0.168,6.038,0.508C295.219,3.22,297.887,4.086,301.616,5.483z"/>
			<path fill="#00394A" d="M308.805,45.917c0.118-0.278,0.314-0.785,0.593-1.525c0.279-0.736,0.484-1.396,0.626-1.974
				c0.138-0.578,0.206-1.326,0.206-2.242V8.294c0-1.117-0.068-2.003-0.206-2.662c-0.142-0.657-0.527-1.604-1.16-2.841h22.432
				l-2.799,5.742l-6.185-1.271c-0.915-0.115-1.898-0.211-2.947-0.288c-1.052-0.077-2.251-0.117-3.599-0.117v14.535h12.853
				l-2.918,5.564l-3.809-1.078c-1.783-0.478-3.828-0.718-6.126-0.718V42.09c4.362,0,7.912-0.358,10.649-1.077l6.604-2.094
				l-3.392,6.998H308.805z"/>
			<path fill="#00394A" d="M337.732,44.301v-6.996c1.586,1.754,2.996,2.979,4.225,3.679c1.229,0.698,2.537,1.046,3.927,1.046
				c1.865,0,3.451-0.598,4.759-1.791c1.23-1.235,1.846-2.787,1.846-4.659c0-1.554-0.427-2.916-1.278-4.092
				c-0.856-1.173-2.369-2.498-4.553-3.971l-3.927-2.808c-3.333-2.509-4.998-5.732-4.998-9.675c0-3.505,1.223-6.45,3.671-8.839
				c2.445-2.389,5.539-3.585,9.279-3.585c1.314,0,2.37,0.103,3.166,0.3c0.794,0.201,1.947,0.64,3.461,1.316v6.7
				c-1.429-1.437-2.657-2.443-3.69-3.021c-1.032-0.578-2.183-0.866-3.451-0.866c-1.904,0-3.511,0.665-4.818,2
				c-1.311,1.334-1.964,3.034-1.964,5.105c0,1.475,0.377,2.789,1.131,3.942c0.476,0.716,1.147,1.453,2.022,2.209
				c0.476,0.438,1.19,0.977,2.141,1.613c0.636,0.478,1.287,0.936,1.963,1.373c0.873,0.597,1.548,1.074,2.026,1.434
				c0.475,0.359,1.089,0.837,1.842,1.434c2.658,2.23,3.989,5.056,3.989,8.481c0,2.468-0.774,4.718-2.32,6.748
				c-2.344,3.226-5.854,4.837-10.535,4.837c-0.872,0-1.645-0.021-2.32-0.06c-0.673-0.04-1.317-0.129-1.935-0.269
				C340.778,45.748,339.558,45.221,337.732,44.301z"/>
		</g>
	</g>
</g>
</svg>
