<?xml version="1.0" encoding="utf-8"?>
<!-- Generator: Adobe Illustrator 16.0.0, SVG Export Plug-In . SVG Version: 6.00 Build 0)  -->
<!DOCTYPE svg PUBLIC "-//W3C//DTD SVG 1.1//EN" "http://www.w3.org/Graphics/SVG/1.1/DTD/svg11.dtd">
<svg version="1.1" id="Layer_1" xmlns="http://www.w3.org/2000/svg" xmlns:xlink="http://www.w3.org/1999/xlink" x="0px" y="0px"
	 width="220px" height="50px" viewBox="0 0 220 50" enable-background="new 0 0 220 50" xml:space="preserve">
<g>
	<g>
		<g>
			<path fill="#00394A" d="M3.953,37.124c0.094-0.188,0.235-0.484,0.426-0.886c0.117-0.284,0.212-0.521,0.283-0.71l0.142-1.808
				V14.787c0-0.284,0-0.568,0-0.852c-0.07-0.33-0.124-0.572-0.159-0.727c-0.036-0.154-0.106-0.366-0.213-0.639
				c-0.106-0.271-0.266-0.607-0.479-1.01H8.03c1.561,0,3.167,0.248,4.822,0.744c1.654,0.496,3.132,1.182,4.432,2.057
				c1.561,1.063,2.771,2.459,3.635,4.184c0.862,1.726,1.294,3.664,1.294,5.814c0,3.877-1.253,6.974-3.759,9.29
				c-2.505,2.317-5.909,3.475-10.211,3.475H3.953z M8.136,13.829v20.99c1.536,0,2.735-0.112,3.599-0.337s1.743-0.632,2.642-1.223
				c2.812-1.773,4.22-4.609,4.22-8.51c0-3.617-1.194-6.43-3.581-8.439c-0.875-0.732-1.791-1.275-2.748-1.631
				C11.31,14.326,9.932,14.042,8.136,13.829z"/>
			<path fill="#00394A" d="M24.403,11.561h4.964c-0.284,0.615-0.479,1.112-0.585,1.492c-0.106,0.379-0.172,0.668-0.195,0.869
				s-0.035,0.503-0.035,0.905v14.63v1.102l0.213,1.029c0.332,0.924,0.984,1.699,1.956,2.326s2.062,0.941,3.271,0.941
				c1.777,0,3.396-0.58,4.854-1.74c1.457-1.16,2.187-2.475,2.187-3.942V14.827c0-0.567-0.042-1.048-0.124-1.438
				c-0.083-0.391-0.302-1-0.656-1.828h4.964c-0.308,0.591-0.514,1.075-0.62,1.453c-0.106,0.379-0.172,0.668-0.195,0.869
				s-0.035,0.514-0.035,0.939v18.934c0,0.331,0,0.62,0,0.869c0,0.248,0.047,0.537,0.142,0.868c0.071,0.425,0.26,0.97,0.567,1.631
				h-4.361l0.319-1.153l0.142-1.115v-0.41c0-0.092,0-0.182,0-0.273c-0.095-0.113-0.142-0.193-0.142-0.238
				c-1.624,1.3-2.971,2.18-4.041,2.641c-1.071,0.461-2.289,0.691-3.654,0.691c-1.93,0-3.624-0.52-5.082-1.561
				c-1.106-0.756-1.883-1.653-2.33-2.693c-0.447-1.135-0.671-2.553-0.671-4.256V14.787c0-0.709-0.083-1.312-0.248-1.809
				L24.403,11.561z"/>
			<path fill="#00394A" d="M48.62,36.166v-4.147c0.944,1.04,1.784,1.767,2.517,2.181s1.513,0.62,2.341,0.62
				c1.11,0,2.056-0.354,2.836-1.062c0.732-0.732,1.1-1.652,1.1-2.762c0-0.921-0.255-1.729-0.763-2.426
				c-0.509-0.695-1.412-1.48-2.712-2.354l-2.341-1.664c-1.985-1.487-2.978-3.398-2.978-5.735c0-2.077,0.729-3.823,2.187-5.239
				s3.302-2.125,5.53-2.125c0.782,0,1.411,0.061,1.886,0.178c0.474,0.119,1.161,0.379,2.062,0.78v3.972
				c-0.852-0.852-1.584-1.448-2.198-1.791c-0.615-0.343-1.301-0.514-2.057-0.514c-1.135,0-2.092,0.395-2.872,1.186
				s-1.17,1.799-1.17,3.026c0,0.874,0.225,1.653,0.674,2.337c0.283,0.425,0.685,0.861,1.205,1.31
				c0.284,0.26,0.709,0.579,1.276,0.956c0.378,0.283,0.768,0.555,1.17,0.814c0.52,0.354,0.922,0.637,1.206,0.85
				c0.283,0.213,0.649,0.496,1.099,0.85c1.584,1.322,2.376,2.997,2.376,5.027c0,1.463-0.461,2.797-1.383,4
				c-1.396,1.912-3.487,2.867-6.276,2.867c-0.52,0-0.98-0.012-1.383-0.035c-0.401-0.023-0.786-0.076-1.152-0.159
				S49.707,36.711,48.62,36.166z"/>
			<path fill="#00394A" d="M64.575,11.561h4.928c-0.401,0.637-0.65,1.145-0.744,1.521l-0.142,1.663v8.067l8.004-8.531
				c0.425-0.424,0.731-0.824,0.919-1.201c0.187-0.377,0.368-0.884,0.544-1.52h5.638l-1.735,1.275l-1.451,1.388l-8.728,9.071
				l8.858,10.855l1.637,1.875c0.354,0.283,0.945,0.65,1.773,1.099h-5.992v-0.603c0-0.33-0.036-0.59-0.107-0.779
				c-0.07-0.189-0.331-0.543-0.781-1.062L68.617,23.94v9.746c0,0.874,0.035,1.488,0.106,1.843c0.07,0.355,0.295,0.887,0.674,1.595
				h-4.752c0.284-0.661,0.461-1.193,0.532-1.596c0.071-0.401,0.106-1.016,0.106-1.844V14.751c0-0.685-0.03-1.17-0.089-1.454
				c-0.06-0.283-0.13-0.543-0.213-0.779S64.763,11.963,64.575,11.561z"/>
			<path fill="#00394A" d="M81.955,11.561h5.318v0.636c0,0.425,0.17,0.954,0.51,1.59l4.664,8.211l4.663-8.194
				c0.297-0.641,0.445-1.115,0.445-1.424v-0.818h4.751l-1.666,1.808c-0.354,0.426-0.78,1.063-1.276,1.915l-5.603,9.432v9.006
				c0,0.851,0.036,1.453,0.106,1.808c0.071,0.354,0.296,0.887,0.674,1.596h-4.999c0.118-0.213,0.248-0.484,0.39-0.815
				c0.142-0.33,0.26-0.668,0.354-1.011s0.142-0.868,0.142-1.577v-9.219l-5.53-9.325c-0.71-1.206-1.176-1.944-1.401-2.216
				c-0.224-0.271-0.49-0.537-0.798-0.798C82.605,12.068,82.357,11.867,81.955,11.561z"/>
			<path fill="#00394A" d="M112.73,37.124c0.307-0.591,0.543-1.17,0.709-1.737c0.117-0.52,0.178-1.087,0.178-1.702V14.751
				c0-0.638-0.043-1.146-0.125-1.524c-0.082-0.378-0.301-0.934-0.656-1.666h4.574c2.719,0,4.969,0.68,6.754,2.038
				c1.785,1.36,2.678,3.114,2.678,5.266c0,1.56-0.545,2.955-1.631,4.184c-0.568,0.615-1.094,1.076-1.578,1.383
				c-0.484,0.308-1.307,0.662-2.465,1.063c1.963,3.073,3.422,5.225,4.379,6.453c0.959,1.229,2.523,2.955,4.699,5.177h-3.307
				c-2.348-2.191-4.113-3.971-5.297-5.338c-1.043-1.249-2.619-3.382-4.729-6.397v8.307c0,0.307,0,0.565,0,0.777
				c0,0.213,0.041,0.513,0.125,0.902c0.082,0.389,0.312,0.971,0.691,1.749H112.73z M116.914,13.758v10.566
				c1.205,0,2.156-0.106,2.854-0.32c0.697-0.213,1.354-0.628,1.969-1.244c1.062-1.067,1.596-2.301,1.596-3.701
				c0-1.304-0.408-2.412-1.225-3.326c-0.814-0.912-1.908-1.512-3.279-1.797L116.914,13.758z"/>
			<path fill="#00394A" d="M132.203,37.124c0.33-0.567,0.566-1.122,0.709-1.667c0.07-0.307,0.117-0.555,0.141-0.744
				s0.035-0.52,0.035-0.992V14.822c0-0.662-0.035-1.135-0.105-1.418c-0.07-0.284-0.16-0.562-0.266-0.834
				c-0.107-0.271-0.266-0.607-0.479-1.01h5.033c-0.307,0.686-0.525,1.271-0.654,1.754c-0.131,0.485-0.195,1-0.195,1.543v18.863
				c0,0.851,0.082,1.523,0.248,2.021c0.047,0.165,0.123,0.372,0.23,0.62c0.105,0.248,0.23,0.503,0.371,0.763H132.203z"/>
			<path fill="#00394A" d="M141.385,37.124c0.094-0.188,0.236-0.484,0.426-0.886c0.117-0.284,0.213-0.521,0.283-0.71l0.143-1.808
				V14.787c0-0.284,0-0.568,0-0.852c-0.07-0.33-0.125-0.572-0.16-0.727s-0.105-0.366-0.213-0.639
				c-0.105-0.271-0.266-0.607-0.479-1.01h4.078c1.561,0,3.166,0.248,4.822,0.744c1.654,0.496,3.131,1.182,4.432,2.057
				c1.561,1.063,2.771,2.459,3.635,4.184c0.861,1.726,1.293,3.664,1.293,5.814c0,3.877-1.252,6.974-3.758,9.29
				c-2.506,2.317-5.91,3.475-10.211,3.475H141.385z M145.568,13.829v20.99c1.537,0,2.736-0.112,3.6-0.337s1.742-0.632,2.641-1.223
				c2.812-1.773,4.221-4.609,4.221-8.51c0-3.617-1.195-6.43-3.582-8.439c-0.875-0.732-1.791-1.275-2.748-1.631
				C148.742,14.326,147.365,14.042,145.568,13.829z"/>
			<path fill="#00394A" d="M182.791,13.156v3.651c-1.797-1.347-3.285-2.245-4.467-2.694c-1.184-0.449-2.506-0.674-3.973-0.674
				c-2.789,0-5.1,1.052-6.932,3.155c-1.832,2.104-2.748,4.739-2.748,7.907c0,3.144,0.945,5.703,2.838,7.676
				c1.891,1.975,4.326,2.961,7.303,2.961c1.041,0,1.861-0.053,2.465-0.16c0.604-0.105,1.578-0.383,2.926-0.833v-6.878
				c0-0.568-0.061-1.029-0.178-1.383c-0.07-0.426-0.283-1.029-0.639-1.809h5c-0.332,0.567-0.562,1.105-0.691,1.613
				c-0.131,0.508-0.195,1.046-0.195,1.613v4.503c0,0.425,0,0.821,0,1.188c0,0.367,0.023,0.71,0.07,1.028
				c0.047,0.319,0.189,0.857,0.426,1.613c-0.898,0.308-1.549,0.521-1.949,0.639c-0.805,0.236-1.727,0.473-2.766,0.709
				c-0.545,0.095-1.184,0.178-1.916,0.248s-1.465,0.106-2.197,0.106c-3.215,0-5.969-0.649-8.262-1.95
				c-1.75-0.992-3.15-2.47-4.201-4.432c-1.053-1.963-1.578-4.09-1.578-6.383c0-3.664,1.281-6.789,3.848-9.378
				c2.564-2.589,5.713-3.882,9.449-3.882c1.441,0,2.641,0.1,3.598,0.301S180.568,12.328,182.791,13.156z"/>
			<path fill="#00394A" d="M187.074,37.124c0.07-0.165,0.188-0.466,0.354-0.904c0.166-0.437,0.289-0.827,0.373-1.17
				c0.082-0.343,0.123-0.786,0.123-1.329V14.822c0-0.662-0.041-1.188-0.123-1.578c-0.084-0.39-0.314-0.951-0.691-1.684h13.367
				l-1.668,3.403l-3.686-0.753c-0.545-0.068-1.131-0.125-1.756-0.171c-0.627-0.046-1.342-0.069-2.145-0.069v8.616h7.658
				l-1.738,3.298l-2.27-0.639c-1.062-0.283-2.281-0.426-3.65-0.426v10.035c2.6,0,4.715-0.213,6.346-0.639l3.936-1.241l-2.021,4.148
				H187.074z"/>
			<path fill="#00394A" d="M204.312,36.166v-4.147c0.945,1.04,1.785,1.767,2.518,2.181s1.512,0.62,2.34,0.62
				c1.111,0,2.057-0.354,2.836-1.062c0.732-0.732,1.1-1.652,1.1-2.762c0-0.921-0.254-1.729-0.762-2.426
				c-0.51-0.695-1.412-1.48-2.713-2.354l-2.34-1.664c-1.986-1.487-2.979-3.398-2.979-5.735c0-2.077,0.729-3.823,2.188-5.239
				c1.457-1.416,3.301-2.125,5.529-2.125c0.783,0,1.412,0.061,1.887,0.178c0.473,0.119,1.16,0.379,2.062,0.78v3.972
				c-0.852-0.852-1.584-1.448-2.199-1.791s-1.301-0.514-2.057-0.514c-1.135,0-2.092,0.395-2.871,1.186
				c-0.781,0.791-1.17,1.799-1.17,3.026c0,0.874,0.225,1.653,0.674,2.337c0.283,0.425,0.684,0.861,1.205,1.31
				c0.283,0.26,0.709,0.579,1.275,0.956c0.379,0.283,0.768,0.555,1.17,0.814c0.52,0.354,0.922,0.637,1.207,0.85
				c0.283,0.213,0.648,0.496,1.098,0.85c1.584,1.322,2.377,2.997,2.377,5.027c0,1.463-0.461,2.797-1.383,4
				c-1.396,1.912-3.488,2.867-6.277,2.867c-0.52,0-0.98-0.012-1.383-0.035c-0.4-0.023-0.785-0.076-1.152-0.159
				C206.127,37.023,205.4,36.711,204.312,36.166z"/>
		</g>
	</g>
</g>
</svg>
