<?xml version="1.0" encoding="utf-8"?>
<!-- Generator: Adobe Illustrator 16.0.0, SVG Export Plug-In . SVG Version: 6.00 Build 0)  -->
<!DOCTYPE svg PUBLIC "-//W3C//DTD SVG 1.1//EN" "http://www.w3.org/Graphics/SVG/1.1/DTD/svg11.dtd">
<svg version="1.1" id="Layer_1" xmlns="http://www.w3.org/2000/svg" xmlns:xlink="http://www.w3.org/1999/xlink" x="0px" y="0px"
	 width="100px" height="30px" viewBox="0 0 100 30" enable-background="new 0 0 100 30" xml:space="preserve">
<g>
	<path fill="#FFFFFF" d="M9.646,11.776h2.599c1.579,0,2.289,0.679,2.289,1.809c0,0.69-0.41,1.299-1.18,1.439v0.011
		c0.85,0.14,1.35,0.77,1.35,1.509c0,1.13-0.85,1.829-2.419,1.829H9.646V11.776z M12.164,14.614c0.84,0,1.26-0.32,1.26-0.97
		c0-0.649-0.42-0.969-1.26-0.969h-1.469v1.939H12.164z M12.334,17.482c0.84,0,1.26-0.359,1.26-0.989s-0.42-0.989-1.26-0.989h-1.639
		v1.979H12.334z"/>
	<path fill="#FFFFFF" d="M22.122,15.074c0,2.099-1.199,3.397-3.118,3.397c-1.909,0-3.108-1.299-3.108-3.397
		c0-2.099,1.199-3.398,3.108-3.398C20.923,11.676,22.122,12.975,22.122,15.074z M17.016,15.074c0,1.568,0.749,2.469,1.988,2.469
		c1.249,0,1.999-0.9,1.999-2.469c0-1.569-0.75-2.469-1.999-2.469C17.765,12.605,17.016,13.505,17.016,15.074z"/>
	<path fill="#FFFFFF" d="M29.571,15.074c0,2.099-1.199,3.397-3.118,3.397c-1.909,0-3.108-1.299-3.108-3.397
		c0-2.099,1.199-3.398,3.108-3.398C28.372,11.676,29.571,12.975,29.571,15.074z M24.465,15.074c0,1.568,0.749,2.469,1.988,2.469
		c1.249,0,1.999-0.9,1.999-2.469c0-1.569-0.75-2.469-1.999-2.469C25.214,12.605,24.465,13.505,24.465,15.074z"/>
	<path fill="#FFFFFF" d="M33.304,15.193l-1.069,1.149v2.029h-1.069v-6.596h1.069v3.278l3.028-3.278h1.31l-2.499,2.698l2.559,3.898
		h-1.259L33.304,15.193z"/>
	<path fill="#FFFFFF" d="M46.383,18.372h-1.27l-2.549-4.158l-0.64-1.219h-0.01l0.04,1.119v4.258h-0.979v-6.596h1.26l2.538,4.148
		l0.649,1.229h0.01l-0.039-1.119v-4.257h0.989V18.372z"/>
	<path fill="#FFFFFF" d="M54.191,15.074c0,2.099-1.199,3.397-3.118,3.397c-1.909,0-3.108-1.299-3.108-3.397
		c0-2.099,1.199-3.398,3.108-3.398C52.992,11.676,54.191,12.975,54.191,15.074z M49.085,15.074c0,1.568,0.749,2.469,1.988,2.469
		c1.249,0,1.999-0.9,1.999-2.469c0-1.569-0.75-2.469-1.999-2.469C49.834,12.605,49.085,13.505,49.085,15.074z"/>
	<path fill="#FFFFFF" d="M58.194,18.372h-1.27l-1.938-6.596h1.159l1.439,5.747l1.448-5.747h1.1l1.459,5.756l1.449-5.756h1.1
		l-1.929,6.596h-1.26l-1.049-3.958l-0.33-1.519h-0.01l-0.33,1.519L58.194,18.372z"/>
</g>
<path fill="#FFFFFF" d="M82.855,15.5c-0.128,0-0.256-0.049-0.354-0.146c-0.195-0.195-0.195-0.512,0-0.707l6.883-6.883
	c0.195-0.195,0.512-0.195,0.707,0s0.195,0.512,0,0.707l-6.883,6.883C83.111,15.451,82.983,15.5,82.855,15.5z"/>
<path fill="#FFFFFF" d="M89.738,12.5c-0.276,0-0.5-0.224-0.5-0.5V8.617h-3.383c-0.276,0-0.5-0.224-0.5-0.5s0.224-0.5,0.5-0.5h3.883
	c0.276,0,0.5,0.224,0.5,0.5V12C90.238,12.276,90.015,12.5,89.738,12.5z"/>
<path fill="#FFFFFF" d="M82.855,22.383c-4.071,0-7.383-3.312-7.383-7.383s3.312-7.383,7.383-7.383c0.276,0,0.5,0.224,0.5,0.5
	s-0.224,0.5-0.5,0.5c-3.52,0-6.383,2.863-6.383,6.383s2.863,6.383,6.383,6.383S89.238,18.52,89.238,15c0-0.276,0.224-0.5,0.5-0.5
	s0.5,0.224,0.5,0.5C90.238,19.071,86.927,22.383,82.855,22.383z"/>
</svg>
