<?xml version="1.0" encoding="utf-8"?>
<!-- Generator: Adobe Illustrator 16.0.0, SVG Export Plug-In . SVG Version: 6.00 Build 0)  -->
<!DOCTYPE svg PUBLIC "-//W3C//DTD SVG 1.1//EN" "http://www.w3.org/Graphics/SVG/1.1/DTD/svg11.dtd">
<svg version="1.1" id="Layer_1" xmlns="http://www.w3.org/2000/svg" xmlns:xlink="http://www.w3.org/1999/xlink" x="0px" y="0px"
	 width="309px" height="74px" viewBox="0 0 309 74" enable-background="new 0 0 309 74" xml:space="preserve">
<g>
	<g>
		<path fill="#505D76" stroke="#FFFFFF" stroke-width="0.2" stroke-miterlimit="10" d="M4.951,41.512
			c0.133-0.267,0.333-0.683,0.6-1.25c0.167-0.4,0.301-0.733,0.4-1l0.2-2.55v-26.7c0-0.4,0-0.8,0-1.2
			C6.051,8.345,5.977,8.004,5.926,7.787c-0.049-0.216-0.149-0.516-0.299-0.9c-0.15-0.383-0.375-0.858-0.676-1.425h5.75
			c2.2,0,4.467,0.35,6.801,1.05c2.332,0.7,4.416,1.667,6.25,2.9c2.199,1.5,3.907,3.467,5.125,5.9c1.216,2.434,1.824,5.167,1.824,8.2
			c0,5.467-1.768,9.833-5.3,13.1c-3.534,3.267-8.333,4.9-14.399,4.9H4.951z M10.852,8.662v29.6c2.166,0,3.857-0.158,5.074-0.475
			c1.217-0.316,2.459-0.891,3.726-1.725c3.966-2.5,5.95-6.5,5.95-12c0-5.1-1.684-9.066-5.051-11.9c-1.232-1.033-2.524-1.8-3.875-2.3
			C15.326,9.362,13.385,8.962,10.852,8.662z"/>
		<path fill="#505D76" stroke="#FFFFFF" stroke-width="0.2" stroke-miterlimit="10" d="M35.201,5.462h7
			c-0.4,0.869-0.676,1.569-0.826,2.104c-0.149,0.535-0.242,0.943-0.274,1.227c-0.034,0.284-0.05,0.709-0.05,1.277V30.7v1.552
			l0.301,1.452c0.468,1.302,1.387,2.396,2.758,3.281c1.37,0.884,2.908,1.326,4.613,1.326c2.507,0,4.788-0.818,6.844-2.454
			c2.057-1.636,3.084-3.488,3.084-5.559v-20.23c0-0.801-0.059-1.477-0.175-2.028c-0.117-0.551-0.425-1.41-0.925-2.579h7
			c-0.434,0.833-0.725,1.517-0.875,2.05c-0.15,0.534-0.242,0.942-0.275,1.225c-0.033,0.284-0.05,0.725-0.05,1.325v26.7
			c0,0.467,0,0.875,0,1.225s0.066,0.758,0.2,1.225c0.1,0.6,0.366,1.367,0.8,2.3h-6.149l0.449-1.626l0.2-1.574v-0.578
			c0-0.128,0-0.256,0-0.385c-0.134-0.16-0.2-0.273-0.2-0.337c-2.289,1.833-4.189,3.075-5.699,3.725s-3.227,0.975-5.152,0.975
			c-2.721,0-5.109-0.733-7.167-2.2c-1.56-1.066-2.655-2.333-3.285-3.8c-0.632-1.6-0.946-3.6-0.946-6v-19.7c0-1-0.117-1.85-0.35-2.55
			L35.201,5.462z"/>
		<path fill="#505D76" stroke="#FFFFFF" stroke-width="0.2" stroke-miterlimit="10" d="M69.35,40.162v-5.85
			c1.334,1.467,2.518,2.492,3.551,3.075c1.033,0.583,2.133,0.875,3.3,0.875c1.566,0,2.899-0.499,4-1.498
			c1.032-1.031,1.55-2.33,1.55-3.895c0-1.298-0.358-2.438-1.074-3.419c-0.718-0.981-1.992-2.088-3.826-3.32l-3.299-2.347
			c-2.801-2.097-4.201-4.792-4.201-8.087c0-2.929,1.029-5.393,3.085-7.389c2.056-1.997,4.655-2.996,7.798-2.996
			c1.104,0,1.99,0.084,2.659,0.25c0.669,0.167,1.638,0.534,2.909,1.1v5.6c-1.201-1.2-2.234-2.042-3.101-2.525
			c-0.867-0.483-1.833-0.725-2.899-0.725c-1.601,0-2.951,0.558-4.051,1.673c-1.1,1.115-1.65,2.537-1.65,4.268
			c0,1.232,0.316,2.331,0.951,3.295c0.399,0.599,0.966,1.215,1.699,1.847c0.4,0.366,1,0.815,1.801,1.348
			c0.532,0.4,1.082,0.782,1.649,1.148c0.733,0.5,1.3,0.899,1.7,1.198c0.4,0.3,0.916,0.699,1.55,1.198
			c2.233,1.864,3.351,4.227,3.351,7.089c0,2.064-0.65,3.944-1.951,5.641c-1.967,2.696-4.916,4.044-8.85,4.044
			c-0.733,0-1.383-0.018-1.949-0.05c-0.568-0.034-1.109-0.108-1.625-0.226C71.908,41.37,70.883,40.929,69.35,40.162z"/>
		<path fill="#505D76" stroke="#FFFFFF" stroke-width="0.2" stroke-miterlimit="10" d="M91.85,5.462h6.95
			c-0.567,0.898-0.917,1.614-1.05,2.146l-0.2,2.345v11.377l11.288-12.031c0.599-0.598,1.031-1.163,1.295-1.695
			c0.264-0.531,0.52-1.246,0.768-2.143h7.949l-2.445,1.8l-2.047,1.956l-12.309,12.793l12.492,15.308l2.309,2.643
			c0.5,0.4,1.333,0.917,2.5,1.55H110.9v-0.849c0-0.466-0.051-0.833-0.151-1.099c-0.101-0.267-0.468-0.767-1.102-1.5L97.55,22.92
			v13.744c0,1.233,0.05,2.099,0.149,2.599c0.101,0.5,0.417,1.25,0.951,2.249h-6.701c0.4-0.933,0.65-1.683,0.75-2.25
			c0.101-0.566,0.15-1.433,0.15-2.6v-26.7c0-0.967-0.042-1.65-0.125-2.05c-0.084-0.4-0.184-0.766-0.3-1.1
			C92.308,6.479,92.116,6.029,91.85,5.462z"/>
		<path fill="#505D76" stroke="#FFFFFF" stroke-width="0.2" stroke-miterlimit="10" d="M114.949,5.462h7.5v0.896
			c0,0.599,0.24,1.346,0.719,2.242l6.578,11.579l6.574-11.556c0.42-0.903,0.629-1.572,0.629-2.008V5.462h6.701l-2.351,2.55
			c-0.5,0.6-1.101,1.5-1.8,2.7l-7.9,13.3v12.7c0,1.2,0.051,2.05,0.15,2.55s0.416,1.25,0.949,2.25h-7.049
			c0.166-0.3,0.35-0.683,0.549-1.15c0.201-0.466,0.367-0.941,0.5-1.425c0.133-0.482,0.201-1.225,0.201-2.225v-13l-7.801-13.15
			c-1-1.7-1.658-2.741-1.975-3.125c-0.316-0.383-0.691-0.758-1.125-1.125C115.867,6.179,115.518,5.896,114.949,5.462z"/>
		<path fill="#505D76" stroke="#FFFFFF" stroke-width="0.2" stroke-miterlimit="10" d="M158.348,41.512
			c0.434-0.833,0.768-1.65,1-2.45c0.167-0.732,0.25-1.533,0.25-2.4v-26.7c0-0.9-0.059-1.617-0.174-2.15
			c-0.117-0.533-0.426-1.316-0.926-2.35h6.45c3.833,0,7.008,0.958,9.524,2.875c2.518,1.917,3.775,4.392,3.775,7.425
			c0,2.2-0.768,4.167-2.3,5.9c-0.8,0.867-1.542,1.517-2.226,1.95c-0.684,0.434-1.842,0.934-3.475,1.5
			c2.767,4.333,4.825,7.367,6.176,9.1c1.35,1.733,3.557,4.167,6.625,7.3h-4.663c-3.31-3.091-5.8-5.599-7.47-7.527
			c-1.471-1.761-3.693-4.769-6.668-9.022v11.715c0,0.432,0,0.797,0,1.097s0.059,0.723,0.176,1.271
			c0.115,0.548,0.441,1.371,0.975,2.467H158.348z M164.248,8.562v14.9c1.7,0,3.041-0.15,4.025-0.452
			c0.982-0.301,1.908-0.886,2.775-1.755c1.5-1.505,2.25-3.245,2.25-5.218c0-1.839-0.576-3.403-1.726-4.69s-2.692-2.132-4.625-2.534
			L164.248,8.562z"/>
		<path fill="#505D76" stroke="#FFFFFF" stroke-width="0.2" stroke-miterlimit="10" d="M184.398,41.512
			c0.466-0.8,0.799-1.583,1-2.35c0.1-0.433,0.166-0.783,0.199-1.05c0.033-0.267,0.051-0.733,0.051-1.4v-26.65
			c0-0.933-0.051-1.6-0.15-2c-0.1-0.4-0.225-0.791-0.375-1.175c-0.15-0.383-0.375-0.858-0.676-1.425h7.101
			c-0.434,0.967-0.742,1.792-0.925,2.475c-0.184,0.684-0.275,1.409-0.275,2.175v26.6c0,1.2,0.117,2.15,0.35,2.85
			c0.066,0.234,0.176,0.525,0.326,0.875c0.149,0.35,0.324,0.709,0.524,1.075H184.398z"/>
		<path fill="#505D76" stroke="#FFFFFF" stroke-width="0.2" stroke-miterlimit="10" d="M197.348,41.512
			c0.133-0.267,0.333-0.683,0.6-1.25c0.167-0.4,0.301-0.733,0.4-1l0.2-2.55v-26.7c0-0.4,0-0.8,0-1.2
			c-0.101-0.466-0.175-0.808-0.226-1.025c-0.049-0.216-0.149-0.516-0.299-0.9c-0.15-0.383-0.375-0.858-0.676-1.425h5.75
			c2.2,0,4.467,0.35,6.801,1.05c2.332,0.7,4.416,1.667,6.25,2.9c2.199,1.5,3.907,3.467,5.125,5.9c1.216,2.434,1.824,5.167,1.824,8.2
			c0,5.467-1.768,9.833-5.3,13.1c-3.534,3.267-8.333,4.9-14.399,4.9H197.348z M203.248,8.662v29.6c2.166,0,3.857-0.158,5.074-0.475
			c1.217-0.316,2.459-0.891,3.726-1.725c3.966-2.5,5.95-6.5,5.95-12c0-5.1-1.684-9.066-5.051-11.9c-1.232-1.033-2.524-1.8-3.875-2.3
			C207.723,9.362,205.781,8.962,203.248,8.662z"/>
		<path fill="#505D76" stroke="#FFFFFF" stroke-width="0.2" stroke-miterlimit="10" d="M257.146,7.712v5.15
			c-2.533-1.9-4.633-3.167-6.299-3.8c-1.668-0.633-3.534-0.95-5.601-0.95c-3.934,0-7.192,1.483-9.774,4.45
			c-2.584,2.967-3.875,6.684-3.875,11.15c0,4.434,1.332,8.042,4,10.825c2.666,2.784,6.1,4.175,10.299,4.175
			c1.467,0,2.625-0.075,3.476-0.225s2.226-0.542,4.125-1.175v-9.7c0-0.8-0.083-1.45-0.25-1.95c-0.101-0.6-0.399-1.45-0.899-2.55
			h7.049c-0.467,0.8-0.791,1.559-0.975,2.275c-0.184,0.717-0.275,1.475-0.275,2.275v6.35c0,0.6,0,1.159,0,1.675
			c0,0.518,0.033,1,0.101,1.45c0.066,0.45,0.267,1.208,0.601,2.275c-1.268,0.434-2.184,0.734-2.75,0.9
			c-1.135,0.334-2.434,0.667-3.9,1c-0.768,0.134-1.668,0.25-2.7,0.351c-1.034,0.1-2.067,0.149-3.101,0.149
			c-4.533,0-8.416-0.916-11.649-2.75c-2.468-1.4-4.442-3.482-5.925-6.25c-1.484-2.766-2.225-5.766-2.225-9
			c0-5.166,1.807-9.575,5.424-13.225c3.617-3.65,8.059-5.475,13.326-5.475c2.032,0,3.725,0.142,5.074,0.425
			C251.771,5.82,254.014,6.545,257.146,7.712z"/>
		<path fill="#505D76" stroke="#FFFFFF" stroke-width="0.2" stroke-miterlimit="10" d="M264.598,41.512
			c0.1-0.232,0.266-0.658,0.5-1.275c0.232-0.617,0.407-1.167,0.524-1.65c0.116-0.483,0.175-1.108,0.175-1.875v-26.65
			c0-0.933-0.059-1.675-0.175-2.225c-0.117-0.55-0.442-1.342-0.975-2.375h18.85l-2.35,4.8l-5.2-1.062
			c-0.768-0.097-1.592-0.178-2.475-0.242c-0.884-0.064-1.893-0.097-3.025-0.097v12.15h10.8l-2.45,4.65l-3.199-0.9
			c-1.5-0.4-3.218-0.6-5.15-0.6v14.15c3.666,0,6.65-0.3,8.95-0.9l5.55-1.75l-2.85,5.85H264.598z"/>
		<path fill="#505D76" stroke="#FFFFFF" stroke-width="0.2" stroke-miterlimit="10" d="M287.496,40.162v-5.85
			c1.334,1.467,2.518,2.492,3.551,3.075c1.033,0.583,2.133,0.875,3.3,0.875c1.566,0,2.899-0.499,4-1.498
			c1.032-1.031,1.55-2.33,1.55-3.895c0-1.298-0.358-2.438-1.074-3.419c-0.718-0.981-1.992-2.088-3.826-3.32l-3.299-2.347
			c-2.801-2.097-4.201-4.792-4.201-8.087c0-2.929,1.029-5.393,3.085-7.389c2.056-1.997,4.655-2.996,7.798-2.996
			c1.104,0,1.99,0.084,2.659,0.25c0.669,0.167,1.638,0.534,2.909,1.1v5.6c-1.201-1.2-2.234-2.042-3.101-2.525
			c-0.867-0.483-1.833-0.725-2.899-0.725c-1.601,0-2.951,0.558-4.051,1.673c-1.1,1.115-1.65,2.537-1.65,4.268
			c0,1.232,0.316,2.331,0.951,3.295c0.399,0.599,0.966,1.215,1.699,1.847c0.4,0.366,1,0.815,1.801,1.348
			c0.532,0.4,1.082,0.782,1.649,1.148c0.733,0.5,1.3,0.899,1.7,1.198c0.4,0.3,0.916,0.699,1.55,1.198
			c2.233,1.864,3.351,4.227,3.351,7.089c0,2.064-0.65,3.944-1.951,5.641c-1.967,2.696-4.916,4.044-8.85,4.044
			c-0.733,0-1.383-0.018-1.949-0.05c-0.568-0.034-1.109-0.108-1.625-0.226C290.055,41.37,289.029,40.929,287.496,40.162z"/>
	</g>
</g>
<g>
	<path fill="#274054" stroke="#FFFFFF" stroke-width="0.25" stroke-miterlimit="10" d="M9.166,53.809v4.472h6.257v1.575H9.166v6.235
		h-1.68V52.233h9.7v1.575H9.166z"/>
	<path fill="#274054" stroke="#FFFFFF" stroke-width="0.25" stroke-miterlimit="10" d="M26.28,62.248h-6.278l-1.47,3.843h-1.764
		l5.396-13.857h1.995l5.375,13.857H27.75L26.28,62.248z M25.671,60.674l-1.869-4.913l-0.651-1.932h-0.042L22.5,55.697l-1.89,4.977
		H25.671z"/>
	<path fill="#274054" stroke="#FFFFFF" stroke-width="0.25" stroke-miterlimit="10" d="M37.011,60.338h-3.317v5.753h-1.68V52.233
		h5.249c2.813,0,4.682,1.554,4.682,4.052c0,1.975-1.176,3.359-3.065,3.863l3.905,5.942h-1.995L37.011,60.338z M33.694,58.764h3.548
		c1.974,0,2.939-0.819,2.939-2.479c0-1.658-0.966-2.477-2.939-2.477h-3.548V58.764z"/>
	<path fill="#274054" stroke="#FFFFFF" stroke-width="0.25" stroke-miterlimit="10" d="M59.038,66.091h-1.596v-8.714l0.189-3.652
		H57.61l-4.556,12.366h-1.428L47.07,53.725h-0.021l0.189,3.652v8.714h-1.596V52.233h2.583l3.044,8.419l1.05,3.465h0.042l1.071-3.443
		l3.023-8.44h2.583V66.091z"/>
	<path fill="#274054" stroke="#FFFFFF" stroke-width="0.25" stroke-miterlimit="10" d="M79.871,54.963l-1.449,1.176
		c-0.84-1.826-1.848-2.541-3.884-2.541c-2.205,0-3.422,1.029-3.422,2.352c0,1.303,0.924,1.953,3.842,2.457
		c3.716,0.63,5.039,1.806,5.039,3.947c0,2.373-2.121,3.947-5.354,3.947c-2.939,0-4.871-1.281-5.837-3.002l1.449-1.176
		c0.735,1.596,2.163,2.604,4.43,2.604c2.142,0,3.569-0.799,3.569-2.289c0-1.197-0.903-1.89-3.821-2.394
		c-3.737-0.651-5.081-1.784-5.081-3.905c0-2.226,1.953-4.115,5.165-4.115C77.057,52.023,78.8,53.031,79.871,54.963z"/>
	<path fill="#274054" stroke="#FFFFFF" stroke-width="0.25" stroke-miterlimit="10" d="M92.302,53.809h-4.829v12.282h-1.68V53.809
		h-4.829v-1.575h11.338V53.809z"/>
	<path fill="#274054" stroke="#FFFFFF" stroke-width="0.25" stroke-miterlimit="10" d="M100.808,62.248H94.53l-1.47,3.843h-1.764
		l5.396-13.857h1.995l5.375,13.857h-1.785L100.808,62.248z M100.199,60.674l-1.869-4.913l-0.651-1.932h-0.042l-0.609,1.868
		l-1.89,4.977H100.199z"/>
	<path fill="#274054" stroke="#FFFFFF" stroke-width="0.25" stroke-miterlimit="10" d="M109.754,60.674v5.417h-1.68v-5.417
		l-4.955-8.44h1.995l3.8,6.719l3.8-6.719h1.995L109.754,60.674z"/>
	<path fill="#274054" stroke="#FFFFFF" stroke-width="0.25" stroke-miterlimit="10" d="M122.796,52.233h4.934
		c3.275,0,4.724,1.47,4.724,3.821c0,1.406-0.84,2.688-2.331,2.981v0.021c1.638,0.315,2.688,1.639,2.688,3.15
		c0,2.352-1.827,3.884-5.102,3.884h-4.913V52.233z M127.751,58.322c1.974,0,2.939-0.734,2.939-2.268
		c0-1.512-0.966-2.246-2.939-2.246h-3.275v4.514H127.751z M128.108,64.516c1.974,0,2.939-0.84,2.939-2.309
		c0-1.471-0.966-2.311-2.939-2.311h-3.632v4.619H128.108z"/>
	<path fill="#274054" stroke="#FFFFFF" stroke-width="0.25" stroke-miterlimit="10" d="M146.209,64.516v1.575h-10.036V52.233h9.721
		v1.575h-8.042v4.472h6.257v1.575h-6.257v4.66H146.209z"/>
	<path fill="#274054" stroke="#FFFFFF" stroke-width="0.25" stroke-miterlimit="10" d="M160.678,59.162
		c0,4.451-2.625,6.929-6.971,6.929h-4.472V52.233h4.472C158.053,52.233,160.678,54.711,160.678,59.162z M158.914,59.162
		c0-3.359-1.869-5.354-5.039-5.354h-2.96v10.707h2.96C157.045,64.516,158.914,62.521,158.914,59.162z"/>
	<path fill="#274054" stroke="#FFFFFF" stroke-width="0.25" stroke-miterlimit="10" d="M181.762,65.041l-0.42,1.26
		c-1.05,0-1.785-0.23-3.171-1.617c-1.05,0.987-2.456,1.617-4.157,1.617c-2.604,0-4.409-1.533-4.409-3.59
		c0-1.68,0.882-2.982,3.317-4.283c-1.176-1.512-1.596-2.289-1.596-3.339c0-1.512,1.113-3.065,3.255-3.065
		c1.638,0,3.233,0.777,3.233,2.855c0,1.449-0.42,2.562-2.729,3.905c0.378,0.504,0.84,1.071,1.386,1.743
		c0.672,0.818,1.218,1.512,1.68,2.057c0.63-1.028,0.966-2.372,0.86-3.947l1.344,0.168c0.105,1.723-0.336,3.443-1.28,4.809
		C180.208,64.811,180.796,65.041,181.762,65.041z M177.247,63.697c-0.546-0.609-1.176-1.365-1.91-2.268
		c-0.588-0.734-1.113-1.365-1.554-1.91c-2.163,1.238-2.604,2.057-2.604,3.064c0,1.387,1.302,2.352,2.771,2.352
		C175.211,64.936,176.365,64.495,177.247,63.697z M172.901,55.068c0,0.713,0.21,1.176,1.364,2.688
		c1.869-1.029,2.058-1.911,2.058-2.835c0-1.008-0.65-1.47-1.764-1.47C173.447,53.451,172.901,54.207,172.901,55.068z"/>
	<path fill="#274054" stroke="#FFFFFF" stroke-width="0.25" stroke-miterlimit="10" d="M190.436,52.233h4.935
		c3.275,0,4.724,1.47,4.724,3.821c0,1.406-0.84,2.688-2.33,2.981v0.021c1.638,0.315,2.688,1.639,2.688,3.15
		c0,2.352-1.827,3.884-5.103,3.884h-4.913V52.233z M195.391,58.322c1.974,0,2.939-0.734,2.939-2.268
		c0-1.512-0.966-2.246-2.939-2.246h-3.275v4.514H195.391z M195.748,64.516c1.974,0,2.939-0.84,2.939-2.309
		c0-1.471-0.966-2.311-2.939-2.311h-3.633v4.619H195.748z"/>
	<path fill="#274054" stroke="#FFFFFF" stroke-width="0.25" stroke-miterlimit="10" d="M208.81,60.338h-3.317v5.753h-1.68V52.233
		h5.249c2.813,0,4.683,1.554,4.683,4.052c0,1.975-1.176,3.359-3.065,3.863l3.905,5.942h-1.995L208.81,60.338z M205.492,58.764h3.549
		c1.974,0,2.939-0.819,2.939-2.479c0-1.658-0.966-2.477-2.939-2.477h-3.549V58.764z"/>
	<path fill="#274054" stroke="#FFFFFF" stroke-width="0.25" stroke-miterlimit="10" d="M227.478,64.516v1.575h-10.036V52.233h9.722
		v1.575h-8.042v4.472h6.257v1.575h-6.257v4.66H227.478z"/>
	<path fill="#274054" stroke="#FFFFFF" stroke-width="0.25" stroke-miterlimit="10" d="M238.293,62.248h-6.278l-1.47,3.843h-1.764
		l5.396-13.857h1.994l5.376,13.857h-1.785L238.293,62.248z M237.685,60.674l-1.869-4.913l-0.651-1.932h-0.042l-0.608,1.868
		l-1.89,4.977H237.685z"/>
	<path fill="#274054" stroke="#FFFFFF" stroke-width="0.25" stroke-miterlimit="10" d="M248.185,59.12l-2.478,2.52v4.451h-1.68
		V52.233h1.68v7.139l6.971-7.139h2.204l-5.521,5.647l5.585,8.21h-2.016L248.185,59.12z"/>
	<path fill="#274054" stroke="#FFFFFF" stroke-width="0.25" stroke-miterlimit="10" d="M259.146,53.809v4.472h6.257v1.575h-6.257
		v6.235h-1.68V52.233h9.7v1.575H259.146z"/>
	<path fill="#274054" stroke="#FFFFFF" stroke-width="0.25" stroke-miterlimit="10" d="M276.261,62.248h-6.278l-1.47,3.843h-1.764
		l5.396-13.857h1.994l5.375,13.857h-1.785L276.261,62.248z M275.651,60.674l-1.869-4.913l-0.65-1.932h-0.042l-0.608,1.868
		l-1.891,4.977H275.651z"/>
	<path fill="#274054" stroke="#FFFFFF" stroke-width="0.25" stroke-miterlimit="10" d="M291.632,54.963l-1.448,1.176
		c-0.84-1.826-1.848-2.541-3.884-2.541c-2.205,0-3.423,1.029-3.423,2.352c0,1.303,0.924,1.953,3.843,2.457
		c3.716,0.63,5.039,1.806,5.039,3.947c0,2.373-2.121,3.947-5.354,3.947c-2.939,0-4.871-1.281-5.837-3.002l1.449-1.176
		c0.734,1.596,2.162,2.604,4.43,2.604c2.142,0,3.569-0.799,3.569-2.289c0-1.197-0.903-1.89-3.821-2.394
		c-3.737-0.651-5.081-1.784-5.081-3.905c0-2.226,1.952-4.115,5.165-4.115C288.819,52.023,290.562,53.031,291.632,54.963z"/>
	<path fill="#274054" stroke="#FFFFFF" stroke-width="0.25" stroke-miterlimit="10" d="M304.063,53.809h-4.829v12.282h-1.68V53.809
		h-4.829v-1.575h11.338V53.809z"/>
</g>
<line fill="none" stroke="#FFFFFF" stroke-miterlimit="10" x1="112" y1="46.5" x2="201.5" y2="46.5"/>
</svg>
