<?xml version="1.0" encoding="utf-8"?>
<!-- Generator: Adobe Illustrator 16.0.0, SVG Export Plug-In . SVG Version: 6.00 Build 0)  -->
<!DOCTYPE svg PUBLIC "-//W3C//DTD SVG 1.1//EN" "http://www.w3.org/Graphics/SVG/1.1/DTD/svg11.dtd">
<svg version="1.1" id="Layer_1" xmlns="http://www.w3.org/2000/svg" xmlns:xlink="http://www.w3.org/1999/xlink" x="0px" y="0px"
	 width="1160px" height="194px" viewBox="0 0 1160 194" enable-background="new 0 0 1160 194" xml:space="preserve">
<g opacity="0.8">
	<path fill="#787169" d="M774.018-240.67c-8.512-3.164-16.325,0.814-23.867,3.588c-6.721,2.471-12.138-0.977-18.677-1.482
		c-5.235-0.404-9.687,2.18-14.814,2.418c-3.552,0.166-8.339-2.818-11.511-1.674c-3.727,1.348-5.738,6.51-10.28,7.471
		c-3.599,0.758-7.339-0.994-10.702-1.713c-6.887-1.473-13.199,0.973-20.603,3.236c-5.919,1.811-11.991,7.369-18.663,6.701v28.842
		h129.117V-240.67"/>
	<path fill="#686566" d="M991.046-296.988c-5.319,0-11.26-1.07-15.984,1.398c-3.102,1.621-4.92,4.227-8.038,5.777
		c-9.003,4.471-17.108,4.098-27.58,2.406c-10.441-1.689-20.453-3.752-31.748-2.713c-7.931,0.73-13.614,5.443-20.855,8.736
		c-7.635,3.471-15.387,3.014-22.643,5.838c-4.312,1.68-5.069,4.252-8.316,6.863c-2.986,2.406-6.711,3.096-10.09,4.971
		c-7.148,3.975-10.855,5.936-19.078,7.209c-8.353,1.295-18.862,2.037-26.438,6.367c-3.662,2.096-6.26,6.256-9.912,7.607
		c-3.642,1.352-8.689,1.258-12.408,1.852c-7.18,1.145-14.801,3.078-19.785,9.018c0.215,1.012-0.081-1.613-0.036-1.395
		c-15.259,4.631-29.38,8.814-44.514,12.336c-5.621,1.307-10.326,2.664-15.457,5.279c-2.832,1.445-3.322,2.9-6.771,3.781
		c-3.587,0.92-7.247-0.602-10.737,1.363c-3.128,1.76-6.141,6.09-8.453,8.602c-9.452,10.262,0.18,23.689,0.172,35.197h318.673
		V-296.988"/>
	<path fill="#565A61" d="M814.537-193.967c5.062-4.299,10.203-9.863,15.242-14.258c12.131-10.572,22.759-17.881,36.971-24.891
		c5.71-2.818,10.157-4.516,16.435-6.301c4.202-1.195,7.921-3.359,12.323-4.037c4.186-0.645,8.765,0.797,12.93,0.105
		c8.451-1.4,13.573-10.678,19.269-16.568c5.371-5.553,11.177-5.391,17.323-9.07c5.796-3.467,11.057-8.293,16.808-12.02
		c6.749-4.373,14.616-5.99,17.647-13.152c13.623-7.967,35.425-13.42,50.576-6.754c8.92,3.928,17.686,8.209,27.774,4.66
		c2.632-0.924,3.944-3.451,6.724-4.201c3.219-0.871,6.521,0.158,9.674-1.006c3.68-1.355,7.112-5.816,11.132-6.283
		c4.975-0.576,14.82,0.357,20.414,1.139c9.665,1.354,18.283,7.5,27.64,9.615c5.816,1.316,9.368,5.064,13.458,9.029
		c5.026,4.873,5.512,5.207,13.124,4.709v120.875H814.537v-30.703"/>
	<path fill="#434F5C" d="M1094.557-276.873c-8.639,4.121-16.987,9.246-26.131,12.693c-8.969,3.381-19.02,6.869-28.417,8.588
		c-17.021,3.117-29.257,17.783-46.181,17.666c-9.344-0.062-18.179-2.883-27.61-3.434c-4.271-0.248-9.036-1.674-13.098-1.369
		c-4.533,0.338-8.944,3.742-13.466,5.162c-7.483,2.355-14.906,4.676-21.38,8.502c-4.789,2.828-5.173,3.883-10.839,4.896
		c-7.699,1.377-15.036,2.344-22.15,6.01c-5.039,2.594-11.048,6.354-13.133,11.047c-5.209,1.008-7.754,6.582-12.15,9.373
		c-2.397,1.523-6.072,1.705-7.689,4.455v30.908H1160v-112.637c-5.505,0-6.246-5.912-11.176-8.572
		c-4.696-2.539-10.949-3.016-16.162-2.414c-6.754,0.777-12.085,3.117-19.269,4.104c-3.56,0.488-9.031,0.889-12.289,2.16
		C1098.894-278.871,1096.717-277.902,1094.557-276.873z"/>
	<path fill="#686566" d="M675.807-201.521c-6.591-4.305-15.755-5.748-20.963-11.197c-3.945-4.125-6.83-9.643-11.987-13.027
		c-6.937-4.553-15.169-6.715-22.009-11.459c-3.533-2.447-5.918-5.684-9.77-7.734c-4.955-2.633-10.996-4.322-16.377-6.756
		c-6.421-2.902-10.725-4.104-19.13-4.084c-8.221,0.02-9.132-2.662-15.664-5.645c-3.255-1.488-3.431-0.334-7.003-0.5
		c-1.565-0.072-3.554,0.367-5.045,0.016c-1.202-0.283-2.988-3.158-3.383-3.213c-6.079-0.84-10.293,3.637-15.644,4.533
		c-7.835,1.318-10.661-2.738-17.17-4.15c-6.68-1.445-13.817-2.09-20.434-2.697c-3.976-0.365-7.768-0.73-11.832-0.705
		c-1.878,0.012-4.411,0.479-6.224,0.012c-1.834-0.471-1.902-2.852-3.477-3.342c-7.134-2.229-16.749-0.252-21.906,4.701v78.982
		h228.016V-201.521"/>
	<path fill="#787169" d="M151.782-298.361c-6.499,0.412-9.885-4.848-15.294-6.732c-4.167-1.451-10.207-1.264-14.774-0.826
		c-11.257,1.086-21.175,3.875-33.12,2.094c-14.72-2.197-30.631-2.949-45.305-5.684C30.428-311.908,13.85-314.619,0-314.158v33.16
		h151.782V-298.361"/>
	<path fill="#686566" d="M428.561-274.322c-6.035-15.01-29.596-12.824-43.25-11.559c-8.095,0.75-12.822-0.236-20.104-1.871
		c-7.603-1.707-16.292,0.18-23.866-2.352c-7.235-2.416-12.611-8.268-18.648-11.863c-6.777-4.037-16.926-7.012-24.758-8.07
		c-8.443-1.137-16.938-2.055-24.726-3.434c-3.977-0.703-7.841-0.184-11.727-1.854c-3.241-1.391-4.132-3.602-7.536-3.121
		c-2.587,0.363-4.251,4.242-6.165,4.688c-2.89,0.668-4.169-1.672-6.884-2.289c-5.505-1.258-8.359,0.281-14.27,3.096
		c-6.686,3.184-12.179,2.469-19.208,4.275c-6.339,1.629-11.442,3.449-19.235,3.449c-15.305,0-25.861,3.582-39.492,8.463
		c-14.886,5.332-35.219,4.447-51.7,5.119c-19.12,0.781-38.918,1.611-56.47,9.08v13.049h388.039V-274.322z"/>
	<path fill="#565A61" d="M138.045-271.578c-8.602,1.174-19.098-0.688-28.141-0.688c-13,0-25.762,0.146-38.324-2.029
		c-7.891-1.365-16.041-4.006-23.758-6.229c-4.84-1.396-9.577-1.918-14.523-3.211c-9.774-2.559-23.717-2.729-33.299-7.074v85.512
		h138.045V-271.578z"/>
	<path fill="#434F5C" d="M681.302-185.732c-3.274-1.924-4.781-5.518-7.897-8.068c-3.225-2.643-7.312-4.543-11.146-5.84
		c-8.638-2.92-17.549,0.125-26.246-0.498c-6.099-0.436-5.929-3.168-10.577-5.508c-4.724-2.377-12.567-2.496-17.72-4.174
		c-9.848-3.207-26.021-11.107-36.334-9.596c-9.536,1.395-15.84,4.83-24.295-0.752c-6.432-4.25-11.719-9.582-19.661-10.906
		c-15.424-2.582-26.694-10.039-40.45-16.465c-4.327-2.02-8.043-4.764-12.233-7.055c-4.431-2.418-4.839-3.027-8.403-6.662
		c-5.282-5.387-11.859-3.883-17.856-6.182c-17.265-6.619-34.354-8.572-52.372-11.027c-20.297-2.766-41.263-1.469-61.672-4.273
		c-20.296-2.791-42.279-3.709-62.501-5.326c-8.595-0.688-17.876-0.381-26.515-0.016c-7.25,0.305-12.595,0.232-19.335-1.719
		c-5.031-1.457-8.438-2.461-13.886-2.387c-13.176,0.186-24.171,6.979-37.25,8.238c-14.147,1.363-28.659,4.537-42.603,7.508
		c-5.544,1.182-11.257,1.988-15.932,4.977c-3.759,2.404-6.713,6.375-10.58,8.807c-9.354,5.883-19.771,10.994-29.414,16.145
		c-10.89,5.812-16.718,12.023-29.971,13.957c-6.003,0.875-8.416,1.592-14.12,3.842C25.24-225.916,7.074-225.975,0-223.506v59.51
		h681.302V-185.732z"/>
	<path fill="#274657" d="M1140.043-158.141c-1.294-0.789-2.863-0.359-3.453-0.789c-4.369-2.357-2.837-1.203-6.114-4.799
		c-3.242-3.559-3.571-2.953-7.703-4.145c-7.587-2.188-14.412-3.018-20.937-6.547c-10.865-5.877-22.724-4.436-34.979-4.438
		c-10.086-0.002-16.388-3.188-25.488-5.475c-20.825-5.242-44.82-5.559-64.577-11.318c-18.889-5.504-46.462-8.158-65.968-1.082
		c-8.471,3.074-14.11,7.664-24.118,7.568c-7.979-0.074-15.371-2.752-23.527-2.746c-7.615,0.01-14.091-3.9-21.172-3.465
		c-5.125,0.316-8.387,3.846-13.695,4.166c-4.109,0.248-9.846-0.893-13.751-1.869c-8.791-2.197-17.665-2.428-26.869-4.188
		c-10.198-1.951-17.867-6.51-28.214-4.58c-17.174,3.207-36.904,1.463-51.293,11.939c-3.736,2.721-1.729,3.314-7.843,4.18
		c-4.653,0.656-9.602,0.018-14.267,0.65c-8.865,1.199-17.605,3.484-26.802,3.471c-21.157-0.037-42.335,1.172-63.457,2.059
		c-10.798,0.455-21.353,1.32-31.978,2.631c-5.972,0.734-12.423-0.543-18.208,0.717c-4.996,1.088-9.745,4.58-14.872,5.768
		c-9.219,2.129-15.472,4.857-24.096,8.336c-10.883,4.393-16.978-0.279-31.401,5.9h666.222
		C1141.482-156.195,1141.339-157.35,1140.043-158.141z"/>
</g>
<g opacity="0.5">
	<g>
		<path fill="#787169" d="M654.844,123.314c4.579,4.791,12.216,6.487,18.474,9.753c2.127-2.511,4.689-5.838,7.337-7.327
			c3.49-1.965,7.15-0.443,10.737-1.363c3.448-0.881,3.938-2.336,6.771-3.781c5.131-2.615,9.836-3.973,15.457-5.279
			c15.133-3.521,41.667-11.305,44.51-12.335c2.347-0.851,9.457-4.711,15.889-6.675v-0.943c-8.512-3.164-16.325,0.814-23.867,3.588
			c-6.721,2.471-12.138-0.977-18.677-1.482c-5.235-0.404-9.687,2.18-14.814,2.418c-3.552,0.166-8.339-2.818-11.511-1.674
			c-3.727,1.348-5.738,6.51-10.28,7.471c-3.599,0.758-7.339-0.994-10.702-1.713c-6.887-1.473-13.199,0.973-20.603,3.236
			c-5.281,1.615-10.686,6.202-16.527,6.7C649.865,116.933,652.106,120.453,654.844,123.314z"/>
		<path fill="#787169" d="M40.521,53.85v-0.381c17.552-7.469,37.35-8.299,56.47-9.08c16.481-0.672,36.814,0.213,51.7-5.119
			c1.049-0.375,2.075-0.74,3.091-1.1v-0.498c-6.499,0.412-9.885-4.848-15.294-6.732c-4.167-1.451-10.207-1.264-14.774-0.826
			c-11.257,1.086-21.175,3.875-33.12,2.094c-14.72-2.197-30.631-2.949-45.305-5.684C30.428,24.125,13.85,21.414,0,21.875v23.35
			c9.582,4.346,23.524,4.516,33.299,7.074C35.745,52.938,38.14,53.389,40.521,53.85z"/>
	</g>
	<g>
		<path fill="#686566" d="M466.338,73.777c3.564,3.635,3.973,4.244,8.403,6.662c4.19,2.291,7.906,5.035,12.233,7.055
			c13.756,6.426,25.026,13.883,40.45,16.465c7.942,1.324,13.229,6.656,19.661,10.906c8.455,5.582,14.759,2.146,24.295,0.752
			c10.313-1.512,26.486,6.389,36.334,9.596c5.152,1.678,12.996,1.797,17.72,4.174c4.648,2.34,4.479,5.072,10.577,5.508
			c8.697,0.623,17.608-2.422,26.246,0.498c3.834,1.297,7.922,3.197,11.146,5.84c3.116,2.551,4.623,6.145,7.897,8.068v1.394
			c1.589-0.266,3.179-0.521,4.772-0.737c4.665-0.633,9.613,0.006,14.267-0.65c6.113-0.865,4.106-1.459,7.843-4.18
			c14.389-10.477,34.119-8.732,51.293-11.939c10.347-1.93,18.016,2.629,28.214,4.58c9.204,1.76,18.078,1.99,26.869,4.188
			c0.174,0.044,0.37,0.088,0.551,0.133c2.963-4.319,9.966-11.178,14.669-15.279c12.131-10.572,22.759-17.881,36.971-24.891
			c5.71-2.818,10.157-4.516,16.435-6.301c4.202-1.195,7.921-3.359,12.323-4.037c4.186-0.645,8.765,0.797,12.93,0.105
			c8.451-1.4,13.573-10.678,19.269-16.568c5.371-5.553,11.177-5.391,17.323-9.07c5.796-3.467,11.057-8.293,16.808-12.02
			c6.749-4.373,14.616-5.99,17.647-13.152c1.813-1.061,3.776-2.075,5.845-3.024c-3.6-0.121-7.191-0.015-10.268,1.592
			c-3.102,1.621-4.92,4.227-8.038,5.777c-9.003,4.471-17.108,4.098-27.58,2.406c-10.441-1.689-20.453-3.752-31.748-2.713
			c-7.931,0.73-13.614,5.443-20.855,8.736c-7.635,3.471-15.387,3.014-22.643,5.838c-4.312,1.68-5.069,4.252-8.316,6.863
			c-2.986,2.406-6.711,3.096-10.09,4.971c-7.148,3.975-10.855,5.936-19.078,7.209c-8.353,1.295-18.862,2.037-26.438,6.367
			c-3.662,2.096-6.26,6.256-9.912,7.607c-3.642,1.352-8.689,1.258-12.408,1.852c-7.147,1.14-16.982,6.594-19.825,7.624
			s-29.377,8.813-44.51,12.335c-5.621,1.307-10.326,2.664-15.457,5.279c-2.832,1.445-3.322,2.9-6.771,3.781
			c-3.587,0.92-7.247-0.602-10.737,1.363c-2.647,1.489-5.21,4.816-7.337,7.327c-6.258-3.266-13.895-4.962-18.474-9.753
			c-3.945-4.125-6.83-9.643-11.987-13.027c-6.937-4.553-15.169-6.715-22.009-11.459c-3.533-2.447-5.918-5.684-9.77-7.734
			c-4.955-2.633-10.996-4.322-16.377-6.756c-6.421-2.902-10.725-4.104-19.13-4.084c-8.221,0.02-9.132-2.662-15.664-5.645
			c-3.255-1.488-3.431-0.334-7.003-0.5c-1.565-0.072-3.554,0.367-5.045,0.016c-1.202-0.283-2.988-3.158-3.383-3.213
			c-6.079-0.84-10.293,3.637-15.644,4.533c-7.835,1.318-10.661-2.738-17.17-4.15c-6.68-1.445-13.817-2.09-20.434-2.697
			c-3.976-0.365-7.768-0.73-11.832-0.705c-1.878,0.012-4.411,0.479-6.224,0.012c-1.834-0.471-1.902-2.852-3.477-3.342
			c-6.809-2.127-15.869-0.416-21.166,4.051C454.516,69.884,461.07,68.406,466.338,73.777z"/>
		<path fill="#686566" d="M47.822,54.51c7.717,2.223,15.867,4.863,23.758,6.229c12.562,2.176,25.324,2.029,38.324,2.029
			c2.385,0,4.872,0.13,7.397,0.3c4.503-2.562,9.844-3.365,15.047-4.474c13.943-2.971,28.455-6.145,42.603-7.508
			c13.079-1.26,24.074-8.053,37.25-8.238c5.447-0.074,8.854,0.93,13.886,2.387c6.74,1.951,12.085,2.023,19.335,1.719
			c8.639-0.365,17.92-0.672,26.515,0.016c20.222,1.617,42.205,2.535,62.501,5.326c20.409,2.805,41.375,1.508,61.672,4.273
			c11.083,1.51,21.814,2.834,32.451,5.167v-1.025c-6.035-15.01-29.596-12.824-43.25-11.559c-8.095,0.75-12.822-0.236-20.104-1.871
			c-7.603-1.707-16.292,0.18-23.866-2.352c-7.235-2.416-12.611-8.268-18.648-11.863c-6.777-4.037-16.926-7.012-24.758-8.07
			c-8.443-1.137-16.938-2.055-24.726-3.434c-3.977-0.703-7.841-0.184-11.727-1.854c-3.241-1.391-4.132-3.602-7.536-3.121
			c-2.587,0.363-4.251,4.242-6.165,4.688c-2.89,0.668-4.169-1.672-6.884-2.289c-5.505-1.258-8.359,0.281-14.27,3.096
			c-6.686,3.184-12.179,2.469-19.208,4.275c-6.339,1.629-11.442,3.449-19.235,3.449c-15.305,0-25.861,3.582-39.492,8.463
			c-14.886,5.332-35.219,4.447-51.7,5.119c-19.12,0.781-38.918,1.611-56.47,9.08v0.381C42.956,53.321,45.376,53.804,47.822,54.51z"
			/>
	</g>
	<g>
		<path fill="#565A61" d="M46.452,101.479c13.253-1.934,19.081-8.145,29.971-13.957c9.644-5.15,20.061-10.262,29.414-16.145
			c3.867-2.432,6.821-6.402,10.58-8.807c0.287-0.184,0.59-0.335,0.885-0.503c-2.525-0.169-5.013-0.3-7.397-0.3
			c-13,0-25.762,0.146-38.324-2.029c-7.891-1.365-16.041-4.006-23.758-6.229c-4.84-1.396-9.577-1.918-14.523-3.211
			C23.524,47.74,9.582,47.57,0,43.225v67.303c7.074-2.469,25.24-2.41,32.332-5.207C38.036,103.07,40.449,102.354,46.452,101.479z"/>
		<path fill="#565A61" d="M1146.876,46.074c-4.09-3.965-7.642-7.713-13.458-9.029c-9.356-2.115-17.975-8.262-27.64-9.615
			c-5.594-0.781-15.439-1.715-20.414-1.139c-4.02,0.467-7.452,4.928-11.132,6.283c-3.153,1.164-6.455,0.135-9.674,1.006
			c-2.779,0.75-4.092,3.277-6.724,4.201c-10.089,3.549-18.854-0.732-27.774-4.66c-15.151-6.666-36.953-1.213-50.576,6.754
			c-3.031,7.162-10.898,8.779-17.647,13.152c-5.751,3.727-11.012,8.553-16.808,12.02c-6.146,3.68-11.952,3.518-17.323,9.07
			c-5.695,5.891-10.817,15.168-19.269,16.568c-4.165,0.691-8.744-0.75-12.93-0.105c-4.402,0.678-8.121,2.842-12.323,4.037
			c-6.277,1.785-10.725,3.482-16.435,6.301c-14.212,7.01-24.84,14.318-36.971,24.891c-4.703,4.102-11.706,10.96-14.669,15.279
			c3.881,0.943,9.274,1.974,13.2,1.736c5.309-0.32,8.57-3.85,13.695-4.166c3.618-0.223,7.079,0.689,10.614,1.634
			c1.739-2.316,5.126-2.563,7.382-3.997c4.396-2.791,6.941-8.365,12.15-9.373c2.085-4.693,8.094-8.453,13.133-11.047
			c7.114-3.666,14.451-4.633,22.15-6.01c5.666-1.014,6.05-2.068,10.839-4.896c6.474-3.826,13.896-6.146,21.38-8.502
			c4.521-1.42,8.933-4.824,13.466-5.162c4.062-0.305,8.827,1.121,13.098,1.369c9.432,0.551,18.267,3.371,27.61,3.434
			c16.924,0.117,29.16-14.549,46.181-17.666c9.397-1.719,19.448-5.207,28.417-8.588c9.144-3.447,17.492-8.572,26.131-12.693
			c2.16-1.029,4.337-1.998,6.548-2.861c3.258-1.271,8.729-1.672,12.289-2.16c7.184-0.986,12.515-3.326,19.269-4.104
			c5.213-0.602,11.466-0.125,16.162,2.414c4.93,2.66,5.671,8.572,11.176,8.572v-8.238
			C1152.388,51.281,1151.902,50.947,1146.876,46.074z"/>
	</g>
	<g>
		<path fill="#434F5C" d="M1148.824,49.449c-4.696-2.539-10.949-3.016-16.162-2.414c-6.754,0.777-12.085,3.117-19.269,4.104
			c-3.56,0.488-9.031,0.889-12.289,2.16c-2.211,0.863-4.388,1.832-6.548,2.861c-8.639,4.121-16.987,9.246-26.131,12.693
			c-8.969,3.381-19.02,6.869-28.417,8.588c-17.021,3.117-29.257,17.783-46.181,17.666c-9.344-0.062-18.179-2.883-27.61-3.434
			c-4.271-0.248-9.036-1.674-13.098-1.369c-4.533,0.338-8.944,3.742-13.466,5.162c-7.483,2.355-14.906,4.676-21.38,8.502
			c-4.789,2.828-5.173,3.883-10.839,4.896c-7.699,1.377-15.036,2.344-22.15,6.01c-5.039,2.594-11.048,6.354-13.133,11.047
			c-5.209,1.008-7.754,6.582-12.15,9.373c-2.256,1.434-5.643,1.681-7.382,3.997c3.383,0.903,6.834,1.836,10.558,1.831
			c8.156-0.006,15.549,2.672,23.527,2.746c10.008,0.096,15.647-4.494,24.118-7.568c19.506-7.076,47.079-4.422,65.968,1.082
			c19.757,5.76,43.752,6.076,64.577,11.318c9.101,2.287,15.402,5.473,25.488,5.475c12.256,0.002,24.114-1.439,34.979,4.438
			c6.524,3.529,13.35,4.359,20.937,6.547c4.132,1.191,4.461,0.586,7.703,4.145c0.51,0.559,0.894,0.993,1.211,1.354H1160V58.021
			C1154.495,58.021,1153.754,52.109,1148.824,49.449z"/>
		<path fill="#434F5C" d="M530.758,162.602c5.127-1.188,9.876-4.68,14.872-5.768c5.785-1.26,12.236,0.018,18.208-0.717
			c10.625-1.311,21.18-2.176,31.978-2.631c21.122-0.887,42.3-2.096,63.457-2.059c7.543,0.012,14.779-1.519,22.029-2.733v-1.394
			c-3.274-1.924-4.781-5.518-7.897-8.068c-3.225-2.643-7.312-4.543-11.146-5.84c-8.638-2.92-17.549,0.125-26.246-0.498
			c-6.099-0.436-5.929-3.168-10.577-5.508c-4.724-2.377-12.567-2.496-17.72-4.174c-9.848-3.207-26.021-11.107-36.334-9.596
			c-9.536,1.395-15.84,4.83-24.295-0.752c-6.432-4.25-11.719-9.582-19.661-10.906c-15.424-2.582-26.694-10.039-40.45-16.465
			c-4.327-2.02-8.043-4.764-12.233-7.055c-4.431-2.418-4.839-3.027-8.403-6.662c-5.282-5.387-11.859-3.883-17.856-6.182
			c-17.265-6.619-34.354-8.572-52.372-11.027c-20.297-2.766-41.263-1.469-61.672-4.273c-20.296-2.791-42.279-3.709-62.501-5.326
			c-8.595-0.688-17.876-0.381-26.515-0.016c-7.25,0.305-12.595,0.232-19.335-1.719c-5.031-1.457-8.438-2.461-13.886-2.387
			c-13.176,0.186-24.171,6.979-37.25,8.238c-14.147,1.363-28.659,4.537-42.603,7.508c-5.544,1.182-11.257,1.988-15.932,4.977
			c-3.759,2.404-6.713,6.375-10.58,8.807c-9.354,5.883-19.771,10.994-29.414,16.145c-10.89,5.812-16.718,12.023-29.971,13.957
			c-6.003,0.875-8.416,1.592-14.12,3.842C25.24,107.117,7.074,107.059,0,109.527v59.51h511.353
			C517.766,166.445,523.289,164.326,530.758,162.602z"/>
	</g>
	<path fill="#274657" d="M1140.043,173.893c-1.294-0.789-2.863-0.359-3.453-0.789c-4.369-2.357-2.837-1.203-6.114-4.799
		c-3.242-3.559-3.571-2.953-7.703-4.145c-7.587-2.188-14.412-3.018-20.937-6.547c-10.865-5.877-22.724-4.436-34.979-4.438
		c-10.086-0.002-16.388-3.188-25.488-5.475c-20.825-5.242-44.82-5.559-64.577-11.318c-18.889-5.504-46.462-8.158-65.968-1.082
		c-8.471,3.074-14.11,7.664-24.118,7.568c-7.979-0.074-15.371-2.752-23.527-2.746c-7.615,0.01-14.091-3.9-21.172-3.465
		c-5.125,0.316-8.387,3.846-13.695,4.166c-4.109,0.248-9.846-0.893-13.751-1.869c-8.791-2.197-17.665-2.428-26.869-4.188
		c-10.198-1.951-17.867-6.51-28.214-4.58c-17.174,3.207-36.904,1.463-51.293,11.939c-3.736,2.721-1.729,3.314-7.843,4.18
		c-4.653,0.656-9.602,0.018-14.267,0.65c-8.865,1.199-17.605,3.484-26.802,3.471c-21.157-0.037-42.335,1.172-63.457,2.059
		c-10.798,0.455-21.353,1.32-31.978,2.631c-5.972,0.734-12.423-0.543-18.208,0.717c-4.996,1.088-9.745,4.58-14.872,5.768
		c-9.219,2.129-15.472,4.857-24.096,8.336c-10.883,4.393-16.978-0.279-31.401,5.9h666.222
		C1141.482,175.838,1141.339,174.684,1140.043,173.893z"/>
</g>
</svg>
